<?xml version="1.0" encoding="UTF-8" standalone="no"?>
<!-- Generator: Adobe Illustrator 22.1.0, SVG Export Plug-In . SVG Version: 6.00 Build 0)  -->

<svg
   xmlns:dc="http://purl.org/dc/elements/1.1/"
   xmlns:cc="http://creativecommons.org/ns#"
   xmlns:rdf="http://www.w3.org/1999/02/22-rdf-syntax-ns#"
   xmlns:svg="http://www.w3.org/2000/svg"
   xmlns="http://www.w3.org/2000/svg"
   xmlns:sodipodi="http://sodipodi.sourceforge.net/DTD/sodipodi-0.dtd"
   xmlns:inkscape="http://www.inkscape.org/namespaces/inkscape"
   version="1.1"
   id="Layer_1"
   x="0px"
   y="0px"
   viewBox="0 0 461.10001 489"
   xml:space="preserve"
   sodipodi:docname="medical-5459650.svg"
   width="461.10001"
   height="489"
   inkscape:version="0.92.5 (2060ec1f9f, 2020-04-08)"><metadata
   id="metadata206"><rdf:RDF><cc:Work
       rdf:about=""><dc:format>image/svg+xml</dc:format><dc:type
         rdf:resource="http://purl.org/dc/dcmitype/StillImage" /><dc:title></dc:title></cc:Work></rdf:RDF></metadata><defs
   id="defs204" /><sodipodi:namedview
   pagecolor="#ffffff"
   bordercolor="#666666"
   borderopacity="1"
   objecttolerance="10"
   gridtolerance="10"
   guidetolerance="10"
   inkscape:pageopacity="0"
   inkscape:pageshadow="2"
   inkscape:window-width="1528"
   inkscape:window-height="836"
   id="namedview202"
   showgrid="false"
   inkscape:zoom="1.3350176"
   inkscape:cx="248.1"
   inkscape:cy="250"
   inkscape:window-x="72"
   inkscape:window-y="27"
   inkscape:window-maximized="1"
   inkscape:current-layer="g199" />
<style
   type="text/css"
   id="style2">
	.st0{fill:#00BFBA;}
	.st1{opacity:0.14;fill:#2B41E3;}
	.st2{opacity:0.28;}
	.st3{fill:#FFFFFF;}
	.st4{fill:#292685;}
	.st5{fill-rule:evenodd;clip-rule:evenodd;fill:#E6EEFF;}
	.st6{fill-rule:evenodd;clip-rule:evenodd;fill:#3071FF;}
	.st7{fill-rule:evenodd;clip-rule:evenodd;fill:#CFDEFF;}
	.st8{fill-rule:evenodd;clip-rule:evenodd;fill:#FFFFFF;}
	.st9{fill-rule:evenodd;clip-rule:evenodd;fill:#2A63E0;}
	.st10{fill-rule:evenodd;clip-rule:evenodd;fill:#F5B8B0;}
	.st11{fill:#F5F6F7;}
	.st12{fill:#FF85FF;}
	.st13{fill:#FF65FF;}
	.st14{fill:#F6F3EE;}
	.st15{fill:#013AD6;}
	.st16{fill-rule:evenodd;clip-rule:evenodd;fill:#142585;}
	.st17{fill-rule:evenodd;clip-rule:evenodd;fill:#E09F98;}
	.st18{fill:#142585;}
	.st19{fill:#FBFBFF;}
	.st20{fill:#0145FF;}
	.st21{opacity:0.32;}
	.st22{opacity:0.24;}
	.st23{fill:none;stroke:#FFFFFF;stroke-width:0.9459;stroke-linecap:round;stroke-linejoin:round;stroke-miterlimit:10;}
	.st24{opacity:0.28;fill:#FFFFFF;}
	.st25{opacity:0.29;fill:#2D69ED;}
	.st26{opacity:0.25;fill:#D6E3FF;}
	.st27{fill:#3075FF;}
	.st28{fill:#1D59DE;}
	.st29{fill:#A1BFFF;}
	.st30{fill:#F0F5FF;}
	.st31{fill:#3071FF;}
	.st32{fill:#C2D5FF;}
	.st33{fill:#548CFF;}
	.st34{fill:#2C67DE;}
	.st35{fill:#82AAFF;}
	.st36{fill:#275ACF;}
	.st37{fill:#D9E5FF;}
	.st38{fill:#BA4ABA;}
	.st39{fill:#BDD1FF;}
	.st40{fill:none;stroke:#292685;stroke-linecap:round;stroke-linejoin:round;stroke-miterlimit:10;}
	.st41{fill:#FFFFFF;stroke:#FFFFFF;stroke-width:1.4852;stroke-miterlimit:10;}
	.st42{fill:#ADC7FF;}
	.st43{fill:none;stroke:#FFFFFF;stroke-width:0.6164;stroke-linecap:round;stroke-linejoin:round;stroke-miterlimit:10;}
	.st44{fill:none;stroke:#FFFFFF;stroke-width:0.5688;stroke-linecap:round;stroke-linejoin:round;stroke-miterlimit:10;}
	.st45{opacity:0.33;fill:#2555C4;}
	.st46{fill:url(#SVGID_1_);}
	.st47{fill:#D6E3FF;}
	.st48{fill:none;stroke:#BFD3FF;stroke-width:1.0825;stroke-miterlimit:10;}
	.st49{fill:#E6EDFF;}
	.st50{fill-rule:evenodd;clip-rule:evenodd;fill:#82AAFF;}
	.st51{fill:#F0F0F0;}
</style>
<g
   id="g19"
   transform="translate(-1.9,-11)"
   inkscape:export-filename="/home/spider/Documents/webdev/webdev/Enviotech-latest/themes/envio/exampleSite/static/images/banner-2.png"
   inkscape:export-xdpi="124.91867"
   inkscape:export-ydpi="124.91867">
	<path
   class="st0"
   d="m 1.9,57.3 v 372.6 c 0,0 111.7,33.8 260.6,-20.1 C 332.6,384.4 337.2,265 269.2,232.4 194,196.3 79.2,177.7 1.9,11 Z"
   id="path4"
   inkscape:connector-curvature="0"
   style="fill:#00bfba" />
	<path
   class="st45"
   d="m 1.9,223.2 v 206.6 c 0,0 111.7,33.8 260.6,-20.1 8.7,-3.1 16.3,-7.7 23,-13.4 C 146.6,400.8 52.7,299.6 1.9,223.2 Z"
   id="path6"
   inkscape:connector-curvature="0"
   style="opacity:0.33000004;fill:#2555c4" />
	<linearGradient
   id="SVGID_1_"
   gradientUnits="userSpaceOnUse"
   x1="299.9838"
   y1="336.9696"
   x2="463.0694"
   y2="336.9696">
		<stop
   offset="0"
   style="stop-color:#2E6DFF"
   id="stop8" />
		<stop
   offset="1.647496e-02"
   style="stop-color:#2F6EFF"
   id="stop10" />
		<stop
   offset="0.6665"
   style="stop-color:#598CFF"
   id="stop12" />
		<stop
   offset="1"
   style="stop-color:#6997FF"
   id="stop14" />
	</linearGradient>
	<path
   class="st46"
   d="M 328.8,449.7 C 359.9,448.9 447,438.9 463,352.4 v -99.9 c 0,-17.8 -16.5,-31.7 -33.9,-27.7 -11.2,2.6 -21.5,12.2 -24.4,37.7 -13.7,124.7 -129.3,145.3 -100,177.3 6.2,6.7 15,10.2 24.1,9.9 z"
   id="path17"
   inkscape:connector-curvature="0"
   style="fill:url(#SVGID_1_)" />
</g>
<g
   id="g199"
   transform="translate(-1.9,-11)">
	<g
   id="g25"
   inkscape:export-filename="/home/spider/Documents/webdev/webdev/Enviotech-latest/themes/envio/exampleSite/static/images/banner-2.png"
   inkscape:export-xdpi="124.91867"
   inkscape:export-ydpi="124.91867">
		<g
   id="g23">
			<path
   class="st47"
   d="m 91.6,255.7 c 2.1,0 2.1,-3.2 0,-3.2 -2.1,-0.1 -2.1,3.2 0,3.2 z"
   id="path21"
   inkscape:connector-curvature="0"
   style="fill:#d6e3ff" />
		</g>
	</g>
	<g
   id="g47"
   inkscape:export-filename="/home/spider/Documents/webdev/webdev/Enviotech-latest/themes/envio/exampleSite/static/images/banner-2.png"
   inkscape:export-xdpi="124.91867"
   inkscape:export-ydpi="124.91867">
		<line
   class="st48"
   x1="292.10001"
   y1="117.6"
   x2="244.3"
   y2="175.5"
   id="line27"
   style="fill:none;stroke:#bfd3ff;stroke-width:1.08249998;stroke-miterlimit:10" />
		<line
   class="st48"
   x1="313.20001"
   y1="116"
   x2="246.8"
   y2="196.3"
   id="line29"
   style="fill:none;stroke:#bfd3ff;stroke-width:1.08249998;stroke-miterlimit:10" />
		<line
   class="st48"
   x1="329.20001"
   y1="119.6"
   x2="253.10001"
   y2="211.8"
   id="line31"
   style="fill:none;stroke:#bfd3ff;stroke-width:1.08249998;stroke-miterlimit:10" />
		<line
   class="st48"
   x1="369.39999"
   y1="181.39999"
   x2="321.5"
   y2="239.3"
   id="line33"
   style="fill:none;stroke:#bfd3ff;stroke-width:1.08249998;stroke-miterlimit:10" />
		<line
   class="st48"
   x1="362"
   y1="211.3"
   x2="346.89999"
   y2="229.60001"
   id="line35"
   style="fill:none;stroke:#bfd3ff;stroke-width:1.08249998;stroke-miterlimit:10" />
		<line
   class="st48"
   x1="264.89999"
   y1="131.2"
   x2="249.8"
   y2="149.39999"
   id="line37"
   style="fill:none;stroke:#bfd3ff;stroke-width:1.08249998;stroke-miterlimit:10" />
		<line
   class="st48"
   x1="366.89999"
   y1="160.39999"
   x2="300.60001"
   y2="240.7"
   id="line39"
   style="fill:none;stroke:#bfd3ff;stroke-width:1.08249998;stroke-miterlimit:10" />
		<line
   class="st48"
   x1="360.29999"
   y1="145.39999"
   x2="284.29999"
   y2="237.5"
   id="line41"
   style="fill:none;stroke:#bfd3ff;stroke-width:1.08249998;stroke-miterlimit:10" />
		<line
   class="st48"
   x1="342.79999"
   y1="126.7"
   x2="262.79999"
   y2="223.60001"
   id="line43"
   style="fill:none;stroke:#bfd3ff;stroke-width:1.08249998;stroke-miterlimit:10" />
		<line
   class="st48"
   x1="352.60001"
   y1="134.8"
   x2="272.60001"
   y2="231.7"
   id="line45"
   style="fill:none;stroke:#bfd3ff;stroke-width:1.08249998;stroke-miterlimit:10" />
	</g>
	<g
   id="g69"
   inkscape:export-filename="/home/spider/Documents/webdev/webdev/Enviotech-latest/themes/envio/exampleSite/static/images/banner-2.png"
   inkscape:export-xdpi="124.91867"
   inkscape:export-ydpi="124.91867">
		<line
   class="st48"
   x1="113.8"
   y1="301"
   x2="66"
   y2="358.89999"
   id="line49"
   style="fill:none;stroke:#bfd3ff;stroke-width:1.08249998;stroke-miterlimit:10" />
		<line
   class="st48"
   x1="134.89999"
   y1="299.39999"
   x2="68.5"
   y2="379.70001"
   id="line51"
   style="fill:none;stroke:#bfd3ff;stroke-width:1.08249998;stroke-miterlimit:10" />
		<line
   class="st48"
   x1="150.89999"
   y1="303"
   x2="74.800003"
   y2="395.10001"
   id="line53"
   style="fill:none;stroke:#bfd3ff;stroke-width:1.08249998;stroke-miterlimit:10" />
		<line
   class="st48"
   x1="191.10001"
   y1="364.79999"
   x2="143.2"
   y2="422.70001"
   id="line55"
   style="fill:none;stroke:#bfd3ff;stroke-width:1.08249998;stroke-miterlimit:10" />
		<line
   class="st48"
   x1="183.7"
   y1="394.70001"
   x2="168.60001"
   y2="413"
   id="line57"
   style="fill:none;stroke:#bfd3ff;stroke-width:1.08249998;stroke-miterlimit:10" />
		<line
   class="st48"
   x1="86.599998"
   y1="314.60001"
   x2="71.5"
   y2="332.79999"
   id="line59"
   style="fill:none;stroke:#bfd3ff;stroke-width:1.08249998;stroke-miterlimit:10" />
		<line
   class="st48"
   x1="188.60001"
   y1="343.79999"
   x2="122.3"
   y2="424.10001"
   id="line61"
   style="fill:none;stroke:#bfd3ff;stroke-width:1.08249998;stroke-miterlimit:10" />
		<line
   class="st48"
   x1="182"
   y1="328.79999"
   x2="106"
   y2="420.89999"
   id="line63"
   style="fill:none;stroke:#bfd3ff;stroke-width:1.08249998;stroke-miterlimit:10" />
		<line
   class="st48"
   x1="164.5"
   y1="310.10001"
   x2="84.5"
   y2="407"
   id="line65"
   style="fill:none;stroke:#bfd3ff;stroke-width:1.08249998;stroke-miterlimit:10" />
		<line
   class="st48"
   x1="174.3"
   y1="318.20001"
   x2="94.300003"
   y2="415.10001"
   id="line67"
   style="fill:none;stroke:#bfd3ff;stroke-width:1.08249998;stroke-miterlimit:10" />
	</g>
	<path
   class="st16"
   d="m 194.5,106.2 c 0,0 22.6,0.5 30.8,11.8 8.2,11.3 3.1,8.8 10.4,36.1 5.8,21.7 -24.4,19.3 -25.7,18.8 -1.3,-0.4 -15.5,-66.7 -15.5,-66.7 z"
   id="path71"
   inkscape:connector-curvature="0"
   style="clip-rule:evenodd;fill:#142585;fill-rule:evenodd"
   inkscape:export-filename="/home/spider/Documents/webdev/webdev/Enviotech-latest/themes/envio/exampleSite/static/images/banner-2.png"
   inkscape:export-xdpi="124.91867"
   inkscape:export-ydpi="124.91867" />
	<path
   class="st10"
   d="m 124.1,300.4 -5.8,24.6 c -2.2,9.6 -0.7,19.6 4.4,28.1 l 26.8,44.7 16.6,-23.1 -25,-37 24.5,-32.1 z"
   id="path73"
   inkscape:connector-curvature="0"
   style="clip-rule:evenodd;fill:#f5b8b0;fill-rule:evenodd"
   inkscape:export-filename="/home/spider/Documents/webdev/webdev/Enviotech-latest/themes/envio/exampleSite/static/images/banner-2.png"
   inkscape:export-xdpi="124.91867"
   inkscape:export-ydpi="124.91867" />
	<path
   class="st49"
   d="m 439.7,187.8 h -96.2 c -3.8,0 -7,-3.1 -7,-7 v -53.3 c 0,-3.8 3.1,-7 7,-7 h 96.2 c 3.8,0 7,3.1 7,7 v 53.3 c 0,3.8 -3.1,7 -7,7 z"
   id="path75"
   inkscape:connector-curvature="0"
   style="fill:#e6edff"
   inkscape:export-filename="/home/spider/Documents/webdev/webdev/Enviotech-latest/themes/envio/exampleSite/static/images/banner-2.png"
   inkscape:export-xdpi="124.91867"
   inkscape:export-ydpi="124.91867" />
	<path
   class="st49"
   d="m 422.4,248.2 h -81.3 c -2.6,0 -4.7,-2.1 -4.7,-4.7 v -27.6 c 0,-2.6 2.1,-4.7 4.7,-4.7 h 81.3 c 2.6,0 4.7,2.1 4.7,4.7 v 27.6 c 0,2.6 -2.1,4.7 -4.7,4.7 z"
   id="path77"
   inkscape:connector-curvature="0"
   style="fill:#e6edff"
   inkscape:export-filename="/home/spider/Documents/webdev/webdev/Enviotech-latest/themes/envio/exampleSite/static/images/banner-2.png"
   inkscape:export-xdpi="124.91867"
   inkscape:export-ydpi="124.91867" />
	<path
   class="st29"
   d="m 411.2,238.1 h -101 c -3.1,0 -5.6,-2.5 -5.6,-5.6 v -30.9 c 0,-3.1 2.5,-5.6 5.6,-5.6 h 101 c 3.1,0 5.6,2.5 5.6,5.6 v 30.9 c 0,3.1 -2.5,5.6 -5.6,5.6 z"
   id="path79"
   inkscape:connector-curvature="0"
   style="fill:#a1bfff"
   inkscape:export-filename="/home/spider/Documents/webdev/webdev/Enviotech-latest/themes/envio/exampleSite/static/images/banner-2.png"
   inkscape:export-xdpi="124.91867"
   inkscape:export-ydpi="124.91867" />
	<path
   class="st29"
   d="M 426.4,181.8 H 309.8 c -4.7,0 -8.5,-3.8 -8.5,-8.5 v -64.5 c 0,-4.7 3.8,-8.5 8.5,-8.5 h 116.5 c 4.7,0 8.5,3.8 8.5,8.5 v 64.5 c 0,4.7 -3.8,8.5 -8.4,8.5 z"
   id="path81"
   inkscape:connector-curvature="0"
   style="fill:#a1bfff"
   inkscape:export-filename="/home/spider/Documents/webdev/webdev/Enviotech-latest/themes/envio/exampleSite/static/images/banner-2.png"
   inkscape:export-xdpi="124.91867"
   inkscape:export-ydpi="124.91867" />
	
		<circle
   transform="matrix(0.4454,-0.8953,0.8953,0.4454,56.8946,376.7732)"
   class="st3"
   cx="332.60001"
   cy="142.5"
   id="ellipse83"
   r="21.799999"
   style="fill:#ffffff"
   inkscape:export-filename="/home/spider/Documents/webdev/webdev/Enviotech-latest/themes/envio/exampleSite/static/images/banner-2.png"
   inkscape:export-xdpi="124.91867"
   inkscape:export-ydpi="124.91867" />
	<g
   id="g89"
   inkscape:export-filename="/home/spider/Documents/webdev/webdev/Enviotech-latest/themes/envio/exampleSite/static/images/banner-2.png"
   inkscape:export-xdpi="124.91867"
   inkscape:export-ydpi="124.91867">
		<g
   id="g87">
			<path
   class="st3"
   d="m 340,203.5 c -3.1,0.9 -5.1,3.2 -6.6,5.1 -0.4,0.6 -1.3,0.6 -1.8,0 -1.5,-2.1 -3.7,-4.6 -6.7,-5.2 -5.7,-1.1 -9.7,4 -8,9.7 1.8,7 15.6,17.9 15.6,17.9 h 0.3 c 0,0 13.6,-10.7 15.3,-17.7 1.7,-5.7 -1.9,-11.7 -8.1,-9.8 z"
   id="path85"
   inkscape:connector-curvature="0"
   style="fill:#ffffff" />
		</g>
	</g>
	<g
   id="g95"
   inkscape:export-filename="/home/spider/Documents/webdev/webdev/Enviotech-latest/themes/envio/exampleSite/static/images/banner-2.png"
   inkscape:export-xdpi="124.91867"
   inkscape:export-ydpi="124.91867">
		<g
   id="g93">
			<path
   class="st31"
   d="m 334.4,222.9 c 0,0 0,0 0,0 -0.5,0 -1,-0.3 -1.1,-0.8 l -2.5,-6.8 -1.2,3.2 c -0.2,0.5 -0.6,0.8 -1.1,0.8 h -4.3 c -0.3,0 -0.5,-0.2 -0.5,-0.5 v 0 c 0,-0.7 0.9,-1.6 1.6,-1.6 h 2.5 l 1.9,-5 c 0.2,-0.5 0.6,-0.8 1.1,-0.8 0,0 0,0 0,0 0.5,0 0.9,0.3 1.1,0.8 l 2.5,6.9 1,-2.3 c 0.2,-0.4 0.6,-0.7 1.1,-0.7 h 4.6 c 0.3,0 0.5,0.2 0.5,0.5 v 0 c 0,0.7 -0.9,1.6 -1.6,1.6 h -2.9 l -1.7,4 c -0.1,0.4 -0.5,0.7 -1,0.7 z m -6.8,-5.2 c 0,0 0,0 0,0 z m 9.8,-0.1 v 0 c 0,0 0,0 0,0 z"
   id="path91"
   inkscape:connector-curvature="0"
   style="fill:#3071ff" />
		</g>
	</g>
	
	
	<g
   id="g109"
   inkscape:export-filename="/home/spider/Documents/webdev/webdev/Enviotech-latest/themes/envio/exampleSite/static/images/banner-2.png"
   inkscape:export-xdpi="124.91867"
   inkscape:export-ydpi="124.91867">
		<g
   id="g107">
			<path
   class="st3"
   d="m 354.4,217.7 v 0 c 0,-2.2 1.8,-4.1 4.1,-4.1 h 46.7 c 2.2,0 4.1,1.8 4.1,4.1 v 0 c 0,2.2 -1.8,4.1 -4.1,4.1 h -46.7 c -2.3,0 -4.1,-1.8 -4.1,-4.1 z"
   id="path105"
   inkscape:connector-curvature="0"
   style="fill:#ffffff" />
		</g>
	</g>
	<g
   id="g115"
   inkscape:export-filename="/home/spider/Documents/webdev/webdev/Enviotech-latest/themes/envio/exampleSite/static/images/banner-2.png"
   inkscape:export-xdpi="124.91867"
   inkscape:export-ydpi="124.91867">
		<g
   id="g113">
			<path
   class="st3"
   d="m 360,151.8 v 0 c 0,-2.2 1.8,-4.1 4.1,-4.1 h 46.7 c 2.2,0 4.1,1.8 4.1,4.1 v 0 c 0,2.2 -1.8,4.1 -4.1,4.1 h -46.7 c -2.3,0 -4.1,-1.9 -4.1,-4.1 z"
   id="path111"
   inkscape:connector-curvature="0"
   style="fill:#ffffff" />
		</g>
	</g>
	<g
   id="g121"
   inkscape:export-filename="/home/spider/Documents/webdev/webdev/Enviotech-latest/themes/envio/exampleSite/static/images/banner-2.png"
   inkscape:export-xdpi="124.91867"
   inkscape:export-ydpi="124.91867">
		<g
   id="g119">
			<path
   class="st3"
   d="m 360,133.9 v 0 c 0,-2.2 1.8,-4.1 4.1,-4.1 h 59.1 c 2.2,0 4.1,1.8 4.1,4.1 v 0 c 0,2.2 -1.8,4.1 -4.1,4.1 H 364 c -2.2,0 -4,-1.8 -4,-4.1 z"
   id="path117"
   inkscape:connector-curvature="0"
   style="fill:#ffffff" />
		</g>
	</g>
	
	<path
   class="st31"
   d="m 342.5,150.2 c -0.3,-2.8 -2.2,-4.8 -3.6,-5.5 -0.6,-0.3 -1.2,-0.4 -1.7,-0.7 -0.3,-0.1 -0.6,-0.3 -1,-0.4 v 0 0 c -0.3,-0.1 -0.5,-0.2 -0.8,-0.3 h -0.1 v 0 l -0.4,-0.1 c 0,0 0,0 0,0 -0.1,-0.1 -0.3,-0.2 -0.4,-0.3 0,0 -0.2,-0.2 -0.2,-0.2 0,-0.1 0,-0.1 0,-0.2 0,-0.5 0,-1.1 0.1,-1.6 0,0 0,0 0,0 0.3,-0.3 0.6,-0.6 0.8,-1.1 0.1,-0.3 0.2,-0.6 0.3,-1 0.9,-0.1 1.1,-1.1 1.2,-1.9 0.1,-0.6 0.3,-2.1 -0.7,-2.1 0,-0.1 0,-0.2 0.1,-0.2 0.1,-0.5 0.2,-1 0.2,-1.5 0,-0.5 -0.1,-1 -0.3,-1.4 -0.1,-0.1 -0.2,-0.3 -0.4,-0.3 0.1,-0.1 0.1,-0.3 0.1,-0.4 0,-1.2 -1.2,-1.9 -2,-2.2 -0.7,-0.3 -1.5,-0.4 -2.3,-0.4 -0.8,0 -1.5,0.2 -2.3,0.4 -0.8,0.3 -2,0.9 -2,2.2 0,0.2 0,0.3 0.1,0.4 -0.2,0 -0.3,0.2 -0.4,0.3 -0.2,0.4 -0.3,0.9 -0.3,1.4 0,0.5 0.1,1 0.2,1.5 0,0.1 0,0.2 0.1,0.2 -0.9,0 -0.8,1.5 -0.7,2.1 0.1,0.7 0.4,1.8 1.2,1.9 0.1,0.3 0.1,0.7 0.3,1 0.2,0.4 0.5,0.8 0.8,1.1 0,0 0,0 0,0 0,0.5 0,1.1 0.1,1.6 0,0 0,0.1 0,0.2 0,0 -0.2,0.1 -0.2,0.2 -0.1,0.1 -0.3,0.2 -0.4,0.3 0,0 0,0 0,0 l -0.4,0.1 v 0 h -0.1 c -0.2,0.1 -0.5,0.2 -0.8,0.3 v 0 0 c -0.3,0.1 -0.6,0.3 -1,0.4 -0.6,0.3 -1.2,0.4 -1.7,0.7 -1.4,0.7 -3.3,2.6 -3.6,5.5 -0.1,1.3 0.6,2.2 1.9,2.2 l 9.2,0.1 9.2,-0.1 c 1.3,0 2.1,-0.8 1.9,-2.2 z"
   id="path129"
   inkscape:connector-curvature="0"
   style="fill:#3071ff"
   inkscape:export-filename="/home/spider/Documents/webdev/webdev/Enviotech-latest/themes/envio/exampleSite/static/images/banner-2.png"
   inkscape:export-xdpi="124.91867"
   inkscape:export-ydpi="124.91867" />
	<path
   class="st7"
   d="m 159.5,351 c 0,0 -26.4,30.3 -31,69.9 -4.6,39.5 3.3,79.1 3.3,79.1 H 240 l -3,-134.8 z"
   id="path131"
   inkscape:connector-curvature="0"
   style="clip-rule:evenodd;fill:#cfdeff;fill-rule:evenodd"
   inkscape:export-filename="/home/spider/Documents/webdev/webdev/Enviotech-latest/themes/envio/exampleSite/static/images/banner-2.png"
   inkscape:export-xdpi="124.91867"
   inkscape:export-ydpi="124.91867" />
	<path
   class="st5"
   d="m 229.2,348.7 c -32.4,36.9 -12.6,59.6 -16,88 -4.7,38.4 -11.1,32.7 -4.2,63.3 h 31 l -3,-134.8 z"
   id="path133"
   inkscape:connector-curvature="0"
   style="clip-rule:evenodd;fill:#e6eeff;fill-rule:evenodd"
   inkscape:export-filename="/home/spider/Documents/webdev/webdev/Enviotech-latest/themes/envio/exampleSite/static/images/banner-2.png"
   inkscape:export-xdpi="124.91867"
   inkscape:export-ydpi="124.91867" />
	<path
   class="st16"
   d="m 145.1,160.7 c -0.4,0.3 14.9,44.5 40,36.1 C 210.2,188.3 185,137 185,137 Z"
   id="path135"
   inkscape:connector-curvature="0"
   style="clip-rule:evenodd;fill:#142585;fill-rule:evenodd"
   inkscape:export-filename="/home/spider/Documents/webdev/webdev/Enviotech-latest/themes/envio/exampleSite/static/images/banner-2.png"
   inkscape:export-xdpi="124.91867"
   inkscape:export-ydpi="124.91867" />
	<path
   class="st50"
   d="m 175.6,235.4 -6.2,60.2 c 0,0 -39.7,-9.3 -39.9,-10.6 -8.6,-72.9 40.7,-72.2 40.7,-72.2 z"
   id="path137"
   inkscape:connector-curvature="0"
   style="clip-rule:evenodd;fill:#82aaff;fill-rule:evenodd"
   inkscape:export-filename="/home/spider/Documents/webdev/webdev/Enviotech-latest/themes/envio/exampleSite/static/images/banner-2.png"
   inkscape:export-xdpi="124.91867"
   inkscape:export-ydpi="124.91867" />
	<path
   class="st10"
   d="m 206,183.4 c 0,0 -2.1,20 -3.8,36.5 -0.5,4.4 -3.3,8.2 -7.3,10 -4.1,1.8 -8.8,1.2 -12.3,-1.5 -1.2,-0.9 -2.3,-1.7 -3.3,-2.5 -4.8,-3.7 -7.1,-9.8 -5.9,-15.7 3.2,-15.2 9,-43 9,-43 z"
   id="path139"
   inkscape:connector-curvature="0"
   style="clip-rule:evenodd;fill:#f5b8b0;fill-rule:evenodd"
   inkscape:export-filename="/home/spider/Documents/webdev/webdev/Enviotech-latest/themes/envio/exampleSite/static/images/banner-2.png"
   inkscape:export-xdpi="124.91867"
   inkscape:export-ydpi="124.91867" />
	<path
   class="st17"
   d="m 205,193.7 c 0,0 -6.6,0.9 -12.8,-4.2 0,0 6.5,10.3 11.9,12.3 z"
   id="path141"
   inkscape:connector-curvature="0"
   style="clip-rule:evenodd;fill:#e09f98;fill-rule:evenodd"
   inkscape:export-filename="/home/spider/Documents/webdev/webdev/Enviotech-latest/themes/envio/exampleSite/static/images/banner-2.png"
   inkscape:export-xdpi="124.91867"
   inkscape:export-ydpi="124.91867" />
	<path
   class="st10"
   d="m 164.2,143.4 c -1.6,-8.2 3.8,-16.2 12,-17.8 8.8,-1.7 19.9,-3.8 28.6,-5.5 8.2,-1.6 14,4.5 17.8,12 4.6,9.2 7.2,27 8,41.2 0.4,8.4 -4.7,16.7 -12.8,19.1 -14,4.2 -43.4,-2.7 -45,-10.9 -2.4,-12.1 -6.3,-26 -8.6,-38.1 z"
   id="path143"
   inkscape:connector-curvature="0"
   style="clip-rule:evenodd;fill:#f5b8b0;fill-rule:evenodd"
   inkscape:export-filename="/home/spider/Documents/webdev/webdev/Enviotech-latest/themes/envio/exampleSite/static/images/banner-2.png"
   inkscape:export-xdpi="124.91867"
   inkscape:export-ydpi="124.91867" />
	<path
   class="st16"
   d="m 139.5,138.2 c 0,0 35.3,-54.8 78.5,-21 0,0 5.5,51.9 -71.1,50.8 -21.4,-0.3 -7.4,-29.8 -7.4,-29.8 z"
   id="path145"
   inkscape:connector-curvature="0"
   style="clip-rule:evenodd;fill:#142585;fill-rule:evenodd"
   inkscape:export-filename="/home/spider/Documents/webdev/webdev/Enviotech-latest/themes/envio/exampleSite/static/images/banner-2.png"
   inkscape:export-xdpi="124.91867"
   inkscape:export-ydpi="124.91867" />
	<path
   class="st10"
   d="m 208.1,260.1 -2.6,-27.8 88.5,49.3 66.7,-14.7 14,11.8 c 0,0 -41.6,19.5 -67.1,29.3 -7.9,3 -16.7,2.7 -24.4,-0.8 -17.4,-8.1 -47.5,-22.1 -47.5,-22.1 z"
   id="path147"
   inkscape:connector-curvature="0"
   style="clip-rule:evenodd;fill:#f5b8b0;fill-rule:evenodd"
   inkscape:export-filename="/home/spider/Documents/webdev/webdev/Enviotech-latest/themes/envio/exampleSite/static/images/banner-2.png"
   inkscape:export-xdpi="124.91867"
   inkscape:export-ydpi="124.91867" />
	<path
   class="st7"
   d="m 246.9,299.3 3,1.8 c 0,0 15.7,-37.5 14.8,-38.5 -20.5,-23 -36.9,-33.6 -49.7,-37.7 -3.9,-1.2 -7.7,-2.7 -11.4,-4.4 -10,-4.6 -24.9,-1.4 -30,-6.4 -1.3,-1.3 -0.3,-3.9 -0.3,-3.9 l -13.6,4 c 0,0 -10,4.3 -11.3,14.3 -4.1,31 -2.7,40.6 4.6,71.5 2.6,11.3 4.7,48.6 1.4,57.7 -9,25.5 80.2,16.2 81.1,4.7 0,0 6.4,-16.2 7.6,-30.4 1,-11.2 2.6,-22.9 3.8,-32.7 z"
   id="path149"
   inkscape:connector-curvature="0"
   style="clip-rule:evenodd;fill:#cfdeff;fill-rule:evenodd"
   inkscape:export-filename="/home/spider/Documents/webdev/webdev/Enviotech-latest/themes/envio/exampleSite/static/images/banner-2.png"
   inkscape:export-xdpi="124.91867"
   inkscape:export-ydpi="124.91867" />
	<path
   class="st10"
   d="m 374.7,278.7 c 0,0 8.6,-8.7 16.5,-17.3 8.7,-9.4 7.4,-14.7 -2.6,-19.3 -2.8,-1.3 -11.1,1.8 -11.1,1.8 l -10.9,13.9 c 0,0 -14.6,14.1 -7.8,21.1 6.7,6.9 15.9,-0.2 15.9,-0.2 z"
   id="path151"
   inkscape:connector-curvature="0"
   style="clip-rule:evenodd;fill:#f5b8b0;fill-rule:evenodd"
   inkscape:export-filename="/home/spider/Documents/webdev/webdev/Enviotech-latest/themes/envio/exampleSite/static/images/banner-2.png"
   inkscape:export-xdpi="124.91867"
   inkscape:export-ydpi="124.91867" />
	<path
   class="st10"
   d="m 389.4,245.7 c 0,0 13.4,-9.1 10.9,-15 -2.4,-5.8 -22.8,13.1 -22.8,13.1 l 6.1,9.4 z"
   id="path153"
   inkscape:connector-curvature="0"
   style="clip-rule:evenodd;fill:#f5b8b0;fill-rule:evenodd"
   inkscape:export-filename="/home/spider/Documents/webdev/webdev/Enviotech-latest/themes/envio/exampleSite/static/images/banner-2.png"
   inkscape:export-xdpi="124.91867"
   inkscape:export-ydpi="124.91867" />
	<path
   class="st16"
   d="m 175.9,198.2 c 0,0 31.5,-2.3 21.3,-51.1 -10.2,-48.8 -33.7,20.2 -33.7,20.2 z"
   id="path155"
   inkscape:connector-curvature="0"
   style="clip-rule:evenodd;fill:#142585;fill-rule:evenodd"
   inkscape:export-filename="/home/spider/Documents/webdev/webdev/Enviotech-latest/themes/envio/exampleSite/static/images/banner-2.png"
   inkscape:export-xdpi="124.91867"
   inkscape:export-ydpi="124.91867" />
	<path
   class="st10"
   d="m 208.5,166.9 c 0.1,6.8 -5.4,12.4 -12.2,12.5 -6.8,0.1 -12.4,-5.4 -12.5,-12.2 -0.1,-6.8 5.4,-12.4 12.2,-12.5 6.9,-0.1 12.5,5.4 12.5,12.2 z"
   id="path157"
   inkscape:connector-curvature="0"
   style="clip-rule:evenodd;fill:#f5b8b0;fill-rule:evenodd"
   inkscape:export-filename="/home/spider/Documents/webdev/webdev/Enviotech-latest/themes/envio/exampleSite/static/images/banner-2.png"
   inkscape:export-xdpi="124.91867"
   inkscape:export-ydpi="124.91867" />
	<path
   class="st5"
   d="m 246.9,299.3 c -1.2,9.8 -2.8,21.5 -3.7,32.5 -1.2,14.3 -6.2,33.3 -6.2,33.3 -0.3,3.8 -8.3,5 -22.5,6.3 2.8,-13 16.2,-12.8 10.9,-39.8 -2.6,-13.1 1.2,-28 0.7,-46.9 z"
   id="path159"
   inkscape:connector-curvature="0"
   style="clip-rule:evenodd;fill:#e6eeff;fill-rule:evenodd"
   inkscape:export-filename="/home/spider/Documents/webdev/webdev/Enviotech-latest/themes/envio/exampleSite/static/images/banner-2.png"
   inkscape:export-xdpi="124.91867"
   inkscape:export-ydpi="124.91867" />
	<path
   class="st51"
   d="m 223,226.5 -11.3,-8.9 -50.2,-7.9 c 0,0 5.9,22 27.9,17.4 12.7,-2.7 33.6,-0.6 33.6,-0.6 z"
   id="path161"
   inkscape:connector-curvature="0"
   style="fill:#f0f0f0"
   inkscape:export-filename="/home/spider/Documents/webdev/webdev/Enviotech-latest/themes/envio/exampleSite/static/images/banner-2.png"
   inkscape:export-xdpi="124.91867"
   inkscape:export-ydpi="124.91867" />
	<path
   class="st16"
   d="m 158.9,155.7 c 4.1,-15.5 -12,-28.8 -26.2,-21.5 -8.6,4.4 -16.1,12.1 -16.6,25.6 -1.2,31.9 -42.6,38.9 -24.7,75.9 15.1,31 -39.2,36.8 2,79.8 37.6,39.3 78.7,-14 67.5,-35.7 -11.2,-21.8 -22.2,-35.1 -7.9,-49.5 21.8,-22 15.2,-35.6 5.1,-50.2 -4.7,-6.8 -1.6,-15 0.8,-24.4 z"
   id="path163"
   inkscape:connector-curvature="0"
   style="clip-rule:evenodd;fill:#142585;fill-rule:evenodd"
   inkscape:export-filename="/home/spider/Documents/webdev/webdev/Enviotech-latest/themes/envio/exampleSite/static/images/banner-2.png"
   inkscape:export-xdpi="124.91867"
   inkscape:export-ydpi="124.91867" />
	<path
   class="st16"
   d="m 118.2,154.2 c 0,0 -9.3,19.6 -19.1,26.4 -9.8,6.7 -4,29.6 -4,29.6 l 1.6,-11.1 c 0,0 -2.1,-9.4 2.8,-14 4.9,-4.6 16.5,-10.7 19.5,-19.1 3.2,-8.5 -0.8,-11.8 -0.8,-11.8 z"
   id="path165"
   inkscape:connector-curvature="0"
   style="clip-rule:evenodd;fill:#142585;fill-rule:evenodd"
   inkscape:export-filename="/home/spider/Documents/webdev/webdev/Enviotech-latest/themes/envio/exampleSite/static/images/banner-2.png"
   inkscape:export-xdpi="124.91867"
   inkscape:export-ydpi="124.91867" />
	<path
   class="st16"
   d="m 181,133.3 c 0,0 7.2,-6.6 18.6,23.4 3.1,8.2 -9.6,11.5 -2.7,16.4 6.9,4.9 12.6,-20.7 6.5,-29.1 -6.1,-8.4 -11.2,-15.4 -11.3,-22.5 -0.1,-7.1 -11.1,11.8 -11.1,11.8 z"
   id="path167"
   inkscape:connector-curvature="0"
   style="clip-rule:evenodd;fill:#142585;fill-rule:evenodd"
   inkscape:export-filename="/home/spider/Documents/webdev/webdev/Enviotech-latest/themes/envio/exampleSite/static/images/banner-2.png"
   inkscape:export-xdpi="124.91867"
   inkscape:export-ydpi="124.91867" />
	<g
   class="st21"
   id="g171"
   style="opacity:0.32000002"
   inkscape:export-filename="/home/spider/Documents/webdev/webdev/Enviotech-latest/themes/envio/exampleSite/static/images/banner-2.png"
   inkscape:export-xdpi="124.91867"
   inkscape:export-ydpi="124.91867">
		<path
   class="st3"
   d="m 72,243.7 -17.9,-5.6 c -1.2,-0.4 -1.8,-1.6 -1.5,-2.8 l 5.6,-17.9 c 0.4,-1.2 1.6,-1.8 2.8,-1.5 l 17.9,5.6 c 1.2,0.4 1.8,1.6 1.5,2.8 l -5.6,17.9 c -0.4,1.3 -1.6,1.9 -2.8,1.5 z m -14.4,-9.1 13.7,4.3 4.3,-13.7 -13.7,-4.3 z"
   id="path169"
   inkscape:connector-curvature="0"
   style="fill:#ffffff" />
	</g>
	<g
   class="st22"
   id="g175"
   style="opacity:0.23999999"
   inkscape:export-filename="/home/spider/Documents/webdev/webdev/Enviotech-latest/themes/envio/exampleSite/static/images/banner-2.png"
   inkscape:export-xdpi="124.91867"
   inkscape:export-ydpi="124.91867">
		<path
   class="st3"
   d="m 87.4,395.1 c -6.8,0 -12.4,-5.6 -12.4,-12.4 0,-6.8 5.6,-12.4 12.4,-12.4 6.8,0 12.4,5.6 12.4,12.4 0,6.9 -5.6,12.4 -12.4,12.4 z m 0,-19.6 c -4,0 -7.3,3.3 -7.3,7.3 0,4 3.3,7.3 7.3,7.3 4,0 7.3,-3.3 7.3,-7.3 -0.1,-4.1 -3.3,-7.3 -7.3,-7.3 z"
   id="path173"
   inkscape:connector-curvature="0"
   style="fill:#ffffff" />
	</g>
	<g
   class="st22"
   id="g179"
   style="opacity:0.23999999"
   inkscape:export-filename="/home/spider/Documents/webdev/webdev/Enviotech-latest/themes/envio/exampleSite/static/images/banner-2.png"
   inkscape:export-xdpi="124.91867"
   inkscape:export-ydpi="124.91867">
		<path
   class="st3"
   d="m 404.9,412.7 c -8.4,0 -15.3,-6.9 -15.3,-15.3 0,-8.4 6.9,-15.3 15.3,-15.3 8.4,0 15.3,6.9 15.3,15.3 0,8.5 -6.8,15.3 -15.3,15.3 z m 0,-24.2 c -4.9,0 -9,4 -9,8.9 0,4.9 4,9 9,9 4.9,0 8.9,-4 8.9,-9 0.1,-4.9 -4,-8.9 -8.9,-8.9 z"
   id="path177"
   inkscape:connector-curvature="0"
   style="fill:#ffffff" />
	</g>
	<path
   class="st23"
   d="m 246.6,374.8 c 3.5,0 72.3,0 72.3,0"
   id="path181"
   inkscape:connector-curvature="0"
   style="fill:none;stroke:#ffffff;stroke-width:0.94590002;stroke-linecap:round;stroke-linejoin:round;stroke-miterlimit:10"
   inkscape:export-filename="/home/spider/Documents/webdev/webdev/Enviotech-latest/themes/envio/exampleSite/static/images/banner-2.png"
   inkscape:export-xdpi="124.91867"
   inkscape:export-ydpi="124.91867" />
	<path
   class="st23"
   d="m 64.1,432.9 c 3.5,0 48,0 48,0"
   id="path183"
   inkscape:connector-curvature="0"
   style="fill:none;stroke:#ffffff;stroke-width:0.94590002;stroke-linecap:round;stroke-linejoin:round;stroke-miterlimit:10"
   inkscape:export-filename="/home/spider/Documents/webdev/webdev/Enviotech-latest/themes/envio/exampleSite/static/images/banner-2.png"
   inkscape:export-xdpi="124.91867"
   inkscape:export-ydpi="124.91867" />
	<path
   class="st23"
   d="m 363.7,438.7 c 3.5,0 48,0 48,0"
   id="path185"
   inkscape:connector-curvature="0"
   style="fill:none;stroke:#ffffff;stroke-width:0.94590002;stroke-linecap:round;stroke-linejoin:round;stroke-miterlimit:10"
   inkscape:export-filename="/home/spider/Documents/webdev/webdev/Enviotech-latest/themes/envio/exampleSite/static/images/banner-2.png"
   inkscape:export-xdpi="124.91867"
   inkscape:export-ydpi="124.91867" />
	<path
   class="st23"
   d="m 55.8,186.4 c 3.5,0 48,0 48,0"
   id="path187"
   inkscape:connector-curvature="0"
   style="fill:none;stroke:#ffffff;stroke-width:0.94590002;stroke-linecap:round;stroke-linejoin:round;stroke-miterlimit:10"
   inkscape:export-filename="/home/spider/Documents/webdev/webdev/Enviotech-latest/themes/envio/exampleSite/static/images/banner-2.png"
   inkscape:export-xdpi="124.91867"
   inkscape:export-ydpi="124.91867" />
	<path
   class="st24"
   d="m 71.7,347.9 c 0,2.5 -2,4.5 -4.5,4.5 -2.5,0 -4.5,-2 -4.5,-4.5 0,-2.5 2,-4.5 4.5,-4.5 2.5,0 4.5,2 4.5,4.5 z"
   id="path189"
   inkscape:connector-curvature="0"
   style="opacity:0.28000004;fill:#ffffff"
   inkscape:export-filename="/home/spider/Documents/webdev/webdev/Enviotech-latest/themes/envio/exampleSite/static/images/banner-2.png"
   inkscape:export-xdpi="124.91867"
   inkscape:export-ydpi="124.91867" />
	<path
   class="st24"
   d="m 260.6,342.6 c 0,2.5 -2,4.5 -4.5,4.5 -2.5,0 -4.5,-2 -4.5,-4.5 0,-2.5 2,-4.5 4.5,-4.5 2.4,-0.1 4.5,2 4.5,4.5 z"
   id="path191"
   inkscape:connector-curvature="0"
   style="opacity:0.28000004;fill:#ffffff"
   inkscape:export-filename="/home/spider/Documents/webdev/webdev/Enviotech-latest/themes/envio/exampleSite/static/images/banner-2.png"
   inkscape:export-xdpi="124.91867"
   inkscape:export-ydpi="124.91867" />
	<path
   class="st24"
   d="m 434,324.6 c 0,2.5 -2,4.5 -4.5,4.5 -2.5,0 -4.5,-2 -4.5,-4.5 0,-2.5 2,-4.5 4.5,-4.5 2.5,0 4.5,2 4.5,4.5 z"
   id="path193"
   inkscape:connector-curvature="0"
   style="opacity:0.28000004;fill:#ffffff"
   inkscape:export-filename="/home/spider/Documents/webdev/webdev/Enviotech-latest/themes/envio/exampleSite/static/images/banner-2.png"
   inkscape:export-xdpi="124.91867"
   inkscape:export-ydpi="124.91867" />
	<path
   class="st24"
   d="m 432.6,424.9 c 0,2.5 -2,4.5 -4.5,4.5 -2.5,0 -4.5,-2 -4.5,-4.5 0,-2.5 2,-4.5 4.5,-4.5 2.5,0 4.5,2 4.5,4.5 z"
   id="path195"
   inkscape:connector-curvature="0"
   style="opacity:0.28000004;fill:#ffffff"
   inkscape:export-filename="/home/spider/Documents/webdev/webdev/Enviotech-latest/themes/envio/exampleSite/static/images/banner-2.png"
   inkscape:export-xdpi="124.91867"
   inkscape:export-ydpi="124.91867" />
	<path
   class="st24"
   d="m 62.1,138.8 c 0,2.5 -2,4.5 -4.5,4.5 -2.5,0 -4.5,-2 -4.5,-4.5 0,-2.5 2,-4.5 4.5,-4.5 2.5,0 4.5,2 4.5,4.5 z"
   id="path197"
   inkscape:connector-curvature="0"
   style="opacity:0.28000004;fill:#ffffff"
   inkscape:export-filename="/home/spider/Documents/webdev/webdev/Enviotech-latest/themes/envio/exampleSite/static/images/banner-2.png"
   inkscape:export-xdpi="124.91867"
   inkscape:export-ydpi="124.91867" />
<text
   xml:space="preserve"
   style="font-style:normal;font-variant:normal;font-weight:bold;font-stretch:normal;font-size:48px;line-height:1.25;font-family:Dyuthi;-inkscape-font-specification:'Dyuthi Bold';letter-spacing:0px;word-spacing:0px;fill:#000000;fill-opacity:1;stroke:none"
   x="156.55225"
   y="67.795959"
   id="text1015"
   inkscape:export-filename="/home/spider/Documents/webdev/webdev/Enviotech-latest/themes/envio/exampleSite/static/images/banner-2.png"
   inkscape:export-xdpi="124.91867"
   inkscape:export-ydpi="124.91867"><tspan
     sodipodi:role="line"
     id="tspan1013"
     x="156.55225"
     y="67.795959"
     style="fill:#ff6600">Enviotech</tspan></text>
<text
   xml:space="preserve"
   style="font-style:normal;font-variant:normal;font-weight:bold;font-stretch:normal;font-size:13.93482399px;line-height:1.25;font-family:Dyuthi;-inkscape-font-specification:'Dyuthi Bold';letter-spacing:0px;word-spacing:0px;fill:#000000;fill-opacity:1;stroke:none;stroke-width:0.58061767"
   x="286.18472"
   y="76.853912"
   id="text1019"
   transform="scale(0.87970662,1.1367426)"
   inkscape:export-filename="/home/spider/Documents/webdev/webdev/Enviotech-latest/themes/envio/exampleSite/static/images/banner-2.png"
   inkscape:export-xdpi="124.91867"
   inkscape:export-ydpi="124.91867"><tspan
     sodipodi:role="line"
     id="tspan1017"
     x="286.18472"
     y="76.853912"
     style="stroke-width:0.58061767">Clinical research automation</tspan></text>
</g>
</svg>